<mxfile host="Electron" agent="Mozilla/5.0 (Windows NT 10.0; Win64; x64) AppleWebKit/537.36 (KHTML, like Gecko) draw.io/28.0.4 Chrome/138.0.7204.97 Electron/37.2.1 Safari/537.36" version="28.0.4">
  <diagram name="EBS Auto-Tagging Architecture" id="architecture">
    <mxGraphModel dx="555" dy="302" grid="0" gridSize="10" guides="1" tooltips="1" connect="1" arrows="1" fold="1" page="1" pageScale="1" pageWidth="1654" pageHeight="1169" math="0" shadow="0">
      <root>
        <mxCell id="0" />
        <mxCell id="1" parent="0" />
        <mxCell id="aws-cloud" value="AWS Cloud" style="sketch=0;outlineConnect=0;gradientColor=none;html=1;whiteSpace=wrap;fontSize=12;fontStyle=1;container=1;pointerEvents=0;collapsible=0;recursiveResize=0;shape=mxgraph.aws4.group;grIcon=mxgraph.aws4.group_aws_cloud;strokeColor=#232F3E;fillColor=none;verticalAlign=top;align=left;spacingLeft=30;fontColor=#232F3E;dashed=0;" parent="1" vertex="1">
          <mxGeometry x="80" y="60" width="1480" height="1000" as="geometry" />
        </mxCell>
        <mxCell id="eventbridge" value="Amazon EventBridge" style="sketch=0;points=[[0,0,0],[0.25,0,0],[0.5,0,0],[0.75,0,0],[1,0,0],[0,1,0],[0.25,1,0],[0.5,1,0],[0.75,1,0],[1,1,0],[0,0.25,0],[0,0.5,0],[0,0.75,0],[1,0.25,0],[1,0.5,0],[1,0.75,0]];outlineConnect=0;fontColor=#232F3E;gradientColor=#FF4F8B;gradientDirection=north;fillColor=#BC1356;strokeColor=#ffffff;dashed=0;verticalLabelPosition=bottom;verticalAlign=top;align=center;html=1;fontSize=12;fontStyle=0;aspect=fixed;shape=mxgraph.aws4.resourceIcon;resIcon=mxgraph.aws4.eventbridge;" parent="aws-cloud" vertex="1">
          <mxGeometry x="140" y="200" width="78" height="78" as="geometry" />
        </mxCell>
        <mxCell id="lambda" value="EBS Auto-Tagger&amp;#xa;Lambda Function" style="sketch=0;points=[[0,0,0],[0.25,0,0],[0.5,0,0],[0.75,0,0],[1,0,0],[0,1,0],[0.25,1,0],[0.5,1,0],[0.75,1,0],[1,1,0],[0,0.25,0],[0,0.5,0],[0,0.75,0],[1,0.25,0],[1,0.5,0],[1,0.75,0]];outlineConnect=0;fontColor=#232F3E;gradientColor=#F78E04;gradientDirection=north;fillColor=#D05C17;strokeColor=#ffffff;dashed=0;verticalLabelPosition=bottom;verticalAlign=top;align=center;html=1;fontSize=12;fontStyle=0;aspect=fixed;shape=mxgraph.aws4.resourceIcon;resIcon=mxgraph.aws4.lambda;" parent="aws-cloud" vertex="1">
          <mxGeometry x="450" y="200" width="78" height="78" as="geometry" />
        </mxCell>
        <mxCell id="iam-role" value="IAM Role&amp;#xa;(EBSAutoTaggerRole)" style="sketch=0;points=[[0,0,0],[0.25,0,0],[0.5,0,0],[0.75,0,0],[1,0,0],[0,1,0],[0.25,1,0],[0.5,1,0],[0.75,1,0],[1,1,0],[0,0.25,0],[0,0.5,0],[0,0.75,0],[1,0.25,0],[1,0.5,0],[1,0.75,0]];outlineConnect=0;fontColor=#232F3E;gradientColor=#F54749;gradientDirection=north;fillColor=#C7131F;strokeColor=#ffffff;dashed=0;verticalLabelPosition=bottom;verticalAlign=top;align=center;html=1;fontSize=12;fontStyle=0;aspect=fixed;shape=mxgraph.aws4.resourceIcon;resIcon=mxgraph.aws4.iam_role;" parent="aws-cloud" vertex="1">
          <mxGeometry x="450" y="15" width="78" height="78" as="geometry" />
        </mxCell>
        <mxCell id="ec2-1" value="EC2 Instance 1&amp;#xa;(with tags)" style="sketch=0;points=[[0,0,0],[0.25,0,0],[0.5,0,0],[0.75,0,0],[1,0,0],[0,1,0],[0.25,1,0],[0.5,1,0],[0.75,1,0],[1,1,0],[0,0.25,0],[0,0.5,0],[0,0.75,0],[1,0.25,0],[1,0.5,0],[1,0.75,0]];outlineConnect=0;fontColor=#232F3E;gradientColor=#F78E04;gradientDirection=north;fillColor=#D05C17;strokeColor=#ffffff;dashed=0;verticalLabelPosition=bottom;verticalAlign=top;align=center;html=1;fontSize=12;fontStyle=0;aspect=fixed;shape=mxgraph.aws4.resourceIcon;resIcon=mxgraph.aws4.ec2;" parent="aws-cloud" vertex="1">
          <mxGeometry x="800" y="150" width="78" height="78" as="geometry" />
        </mxCell>
        <mxCell id="ec2-2" value="EC2 Instance 2&amp;#xa;(with tags)" style="sketch=0;points=[[0,0,0],[0.25,0,0],[0.5,0,0],[0.75,0,0],[1,0,0],[0,1,0],[0.25,1,0],[0.5,1,0],[0.75,1,0],[1,1,0],[0,0.25,0],[0,0.5,0],[0,0.75,0],[1,0.25,0],[1,0.5,0],[1,0.75,0]];outlineConnect=0;fontColor=#232F3E;gradientColor=#F78E04;gradientDirection=north;fillColor=#D05C17;strokeColor=#ffffff;dashed=0;verticalLabelPosition=bottom;verticalAlign=top;align=center;html=1;fontSize=12;fontStyle=0;aspect=fixed;shape=mxgraph.aws4.resourceIcon;resIcon=mxgraph.aws4.ec2;" parent="aws-cloud" vertex="1">
          <mxGeometry x="800" y="280" width="78" height="78" as="geometry" />
        </mxCell>
        <mxCell id="ebs-1" value="EBS Volume 1&amp;#xa;(gets tagged)" style="sketch=0;points=[[0,0,0],[0.25,0,0],[0.5,0,0],[0.75,0,0],[1,0,0],[0,1,0],[0.25,1,0],[0.5,1,0],[0.75,1,0],[1,1,0],[0,0.25,0],[0,0.5,0],[0,0.75,0],[1,0.25,0],[1,0.5,0],[1,0.75,0]];outlineConnect=0;fontColor=#232F3E;gradientColor=#F78E04;gradientDirection=north;fillColor=#D05C17;strokeColor=#ffffff;dashed=0;verticalLabelPosition=bottom;verticalAlign=top;align=center;html=1;fontSize=12;fontStyle=0;aspect=fixed;shape=mxgraph.aws4.resourceIcon;resIcon=mxgraph.aws4.ebs;" parent="aws-cloud" vertex="1">
          <mxGeometry x="1000" y="150" width="78" height="78" as="geometry" />
        </mxCell>
        <mxCell id="ebs-2" value="EBS Volume 2&amp;#xa;(gets tagged)" style="sketch=0;points=[[0,0,0],[0.25,0,0],[0.5,0,0],[0.75,0,0],[1,0,0],[0,1,0],[0.25,1,0],[0.5,1,0],[0.75,1,0],[1,1,0],[0,0.25,0],[0,0.5,0],[0,0.75,0],[1,0.25,0],[1,0.5,0],[1,0.75,0]];outlineConnect=0;fontColor=#232F3E;gradientColor=#F78E04;gradientDirection=north;fillColor=#D05C17;strokeColor=#ffffff;dashed=0;verticalLabelPosition=bottom;verticalAlign=top;align=center;html=1;fontSize=12;fontStyle=0;aspect=fixed;shape=mxgraph.aws4.resourceIcon;resIcon=mxgraph.aws4.ebs;" parent="aws-cloud" vertex="1">
          <mxGeometry x="1000" y="280" width="78" height="78" as="geometry" />
        </mxCell>
        <mxCell id="cloudwatch-logs" value="CloudWatch Logs&amp;#xa;(Reports and Monitoring)" style="sketch=0;points=[[0,0,0],[0.25,0,0],[0.5,0,0],[0.75,0,0],[1,0,0],[0,1,0],[0.25,1,0],[0.5,1,0],[0.75,1,0],[1,1,0],[0,0.25,0],[0,0.5,0],[0,0.75,0],[1,0.25,0],[1,0.5,0],[1,0.75,0]];outlineConnect=0;fontColor=#232F3E;gradientColor=#759C3E;gradientDirection=north;fillColor=#7AA116;strokeColor=#ffffff;dashed=0;verticalLabelPosition=bottom;verticalAlign=top;align=center;html=1;fontSize=12;fontStyle=0;aspect=fixed;shape=mxgraph.aws4.resourceIcon;resIcon=mxgraph.aws4.cloudwatch;" parent="aws-cloud" vertex="1">
          <mxGeometry x="450" y="400" width="78" height="78" as="geometry" />
        </mxCell>
        <mxCell id="admin" value="AWS Administrator&amp;#xa;(Views Reports)" style="sketch=0;outlineConnect=0;fontColor=#232F3E;gradientColor=none;fillColor=#232F3D;strokeColor=none;dashed=0;verticalLabelPosition=bottom;verticalAlign=top;align=center;html=1;fontSize=12;fontStyle=0;aspect=fixed;pointerEvents=1;shape=mxgraph.aws4.user;" parent="aws-cloud" vertex="1">
          <mxGeometry x="140" y="400" width="78" height="78" as="geometry" />
        </mxCell>
        <mxCell id="arrow1" value="01. Triggers every 5 min" style="edgeStyle=orthogonalEdgeStyle;rounded=0;orthogonalLoop=1;jettySize=auto;html=1;strokeColor=#FF6B35;strokeWidth=3;fontColor=#FF6B35;fontStyle=1;flowAnimation=1;" parent="aws-cloud" source="eventbridge" target="lambda" edge="1">
          <mxGeometry relative="1" as="geometry">
            <mxPoint x="330" y="239" as="targetPoint" />
            <Array as="points">
              <mxPoint x="300" y="239" />
              <mxPoint x="300" y="239" />
            </Array>
          </mxGeometry>
        </mxCell>
        <mxCell id="arrow2" value="02. Assumes Role" style="edgeStyle=orthogonalEdgeStyle;rounded=0;orthogonalLoop=1;jettySize=auto;html=1;strokeColor=#4A90E2;strokeWidth=2;fontColor=#4A90E2;fontStyle=1;flowAnimation=1;" parent="aws-cloud" source="iam-role" target="lambda" edge="1">
          <mxGeometry relative="1" as="geometry" />
        </mxCell>
        <mxCell id="arrow3" value="03. Scans Instances" style="edgeStyle=orthogonalEdgeStyle;rounded=0;orthogonalLoop=1;jettySize=auto;html=1;strokeColor=#7B68EE;strokeWidth=3;fontColor=#7B68EE;fontStyle=1;flowAnimation=1;" parent="aws-cloud" source="lambda" target="ec2-1" edge="1">
          <mxGeometry x="0.2" relative="1" as="geometry">
            <mxPoint as="offset" />
            <Array as="points">
              <mxPoint x="650" y="214" />
              <mxPoint x="650" y="169" />
            </Array>
          </mxGeometry>
        </mxCell>
        <mxCell id="arrow4" value="04. Reads Tags" style="edgeStyle=orthogonalEdgeStyle;rounded=0;orthogonalLoop=1;jettySize=auto;html=1;strokeColor=#7B68EE;strokeWidth=3;fontColor=#7B68EE;fontStyle=1;flowAnimation=1;" parent="aws-cloud" source="lambda" target="ec2-2" edge="1">
          <mxGeometry x="0.202" relative="1" as="geometry">
            <mxPoint as="offset" />
            <Array as="points">
              <mxPoint x="650" y="268" />
              <mxPoint x="650" y="346" />
            </Array>
          </mxGeometry>
        </mxCell>
        <mxCell id="arrow5" value="07. Applies Tags" style="edgeStyle=orthogonalEdgeStyle;rounded=0;orthogonalLoop=1;jettySize=auto;html=1;strokeColor=#32CD32;strokeWidth=3;fontColor=#32CD32;fontStyle=1;flowAnimation=1;" parent="aws-cloud" source="lambda" target="ebs-1" edge="1">
          <mxGeometry x="0.0536" relative="1" as="geometry">
            <mxPoint as="offset" />
            <Array as="points">
              <mxPoint x="700" y="232" />
              <mxPoint x="700" y="189" />
            </Array>
          </mxGeometry>
        </mxCell>
        <mxCell id="arrow6" value="07.&amp;nbsp;Updates Tags" style="edgeStyle=orthogonalEdgeStyle;rounded=0;orthogonalLoop=1;jettySize=auto;html=1;strokeColor=#32CD32;strokeWidth=3;fontColor=#32CD32;fontStyle=1;flowAnimation=1;" parent="aws-cloud" source="lambda" target="ebs-2" edge="1">
          <mxGeometry x="0.1268" y="4" relative="1" as="geometry">
            <mxPoint as="offset" />
            <Array as="points">
              <mxPoint x="700" y="253" />
              <mxPoint x="700" y="319" />
            </Array>
          </mxGeometry>
        </mxCell>
        <mxCell id="attach1" value="05. Attached" style="edgeStyle=orthogonalEdgeStyle;rounded=0;orthogonalLoop=1;jettySize=auto;html=1;strokeColor=#FFD700;strokeWidth=2;fontColor=#B8860B;fontStyle=1;dashed=1;flowAnimation=1;" parent="aws-cloud" source="ec2-1" target="ebs-1" edge="1">
          <mxGeometry relative="1" as="geometry" />
        </mxCell>
        <mxCell id="attach2" value="05. Attached" style="edgeStyle=orthogonalEdgeStyle;rounded=0;orthogonalLoop=1;jettySize=auto;html=1;strokeColor=#FFD700;strokeWidth=2;fontColor=#B8860B;fontStyle=1;dashed=1;flowAnimation=1;" parent="aws-cloud" source="ec2-2" target="ebs-2" edge="1">
          <mxGeometry relative="1" as="geometry" />
        </mxCell>
        <mxCell id="arrow7" value="08. Logs Reports" style="edgeStyle=orthogonalEdgeStyle;rounded=0;orthogonalLoop=1;jettySize=auto;html=1;strokeColor=#FF69B4;strokeWidth=3;fontColor=#FF69B4;fontStyle=1;flowAnimation=1;" parent="aws-cloud" source="lambda" target="cloudwatch-logs" edge="1">
          <mxGeometry relative="1" as="geometry" />
        </mxCell>
        <mxCell id="arrow8" value="10. Views Logs" style="edgeStyle=orthogonalEdgeStyle;rounded=0;orthogonalLoop=1;jettySize=auto;html=1;strokeColor=#20B2AA;strokeWidth=2;fontColor=#20B2AA;fontStyle=1;flowAnimation=1;" parent="aws-cloud" source="admin" target="cloudwatch-logs" edge="1">
          <mxGeometry relative="1" as="geometry" />
        </mxCell>
        <mxCell id="HDXCXhQl1ltkm27_ZV5d-1" value="" style="group" parent="aws-cloud" vertex="1" connectable="0">
          <mxGeometry x="836" y="675" width="240" height="317" as="geometry" />
        </mxCell>
        <mxCell id="HDXCXhQl1ltkm27_ZV5d-6" value="" style="group" parent="HDXCXhQl1ltkm27_ZV5d-1" vertex="1" connectable="0">
          <mxGeometry width="240" height="317" as="geometry" />
        </mxCell>
        <mxCell id="workflow-box" value="" style="rounded=1;whiteSpace=wrap;html=1;fillColor=#FFF8DC;strokeColor=#DAA520;strokeWidth=2;" parent="HDXCXhQl1ltkm27_ZV5d-6" vertex="1">
          <mxGeometry width="240" height="317" as="geometry" />
        </mxCell>
        <mxCell id="workflow-title" value="Workflow Steps" style="text;html=1;strokeColor=none;fillColor=none;align=center;verticalAlign=middle;whiteSpace=wrap;rounded=0;fontSize=16;fontStyle=1;fontColor=#B8860B;" parent="HDXCXhQl1ltkm27_ZV5d-6" vertex="1">
          <mxGeometry y="6.339999999999999" width="240" height="19.019999999999996" as="geometry" />
        </mxCell>
        <mxCell id="step1" value="1. EventBridge triggers Lambda" style="text;html=1;strokeColor=none;fillColor=none;align=left;verticalAlign=top;whiteSpace=wrap;rounded=0;fontSize=11;fontColor=#333;" parent="HDXCXhQl1ltkm27_ZV5d-6" vertex="1">
          <mxGeometry x="10" y="31.699999999999992" width="220" height="19.019999999999996" as="geometry" />
        </mxCell>
        <mxCell id="step2" value="2. Lambda assumes IAM role" style="text;html=1;strokeColor=none;fillColor=none;align=left;verticalAlign=top;whiteSpace=wrap;rounded=0;fontSize=11;fontColor=#333;" parent="HDXCXhQl1ltkm27_ZV5d-6" vertex="1">
          <mxGeometry x="10" y="53.88999999999999" width="220" height="19.019999999999996" as="geometry" />
        </mxCell>
        <mxCell id="step3" value="3. Scan all EC2 instances" style="text;html=1;strokeColor=none;fillColor=none;align=left;verticalAlign=top;whiteSpace=wrap;rounded=0;fontSize=11;fontColor=#333;" parent="HDXCXhQl1ltkm27_ZV5d-6" vertex="1">
          <mxGeometry x="10" y="76.07999999999998" width="220" height="19.019999999999996" as="geometry" />
        </mxCell>
        <mxCell id="step4" value="4. Read instance tags" style="text;html=1;strokeColor=none;fillColor=none;align=left;verticalAlign=top;whiteSpace=wrap;rounded=0;fontSize=11;fontColor=#333;" parent="HDXCXhQl1ltkm27_ZV5d-6" vertex="1">
          <mxGeometry x="10" y="98.27" width="220" height="19.019999999999996" as="geometry" />
        </mxCell>
        <mxCell id="step5" value="5. Find attached EBS volumes" style="text;html=1;strokeColor=none;fillColor=none;align=left;verticalAlign=top;whiteSpace=wrap;rounded=0;fontSize=11;fontColor=#333;" parent="HDXCXhQl1ltkm27_ZV5d-6" vertex="1">
          <mxGeometry x="10" y="120.45999999999998" width="220" height="19.019999999999996" as="geometry" />
        </mxCell>
        <mxCell id="step6" value="6. Compare existing volume tags" style="text;html=1;strokeColor=none;fillColor=none;align=left;verticalAlign=top;whiteSpace=wrap;rounded=0;fontSize=11;fontColor=#333;" parent="HDXCXhQl1ltkm27_ZV5d-6" vertex="1">
          <mxGeometry x="10" y="142.64999999999998" width="220" height="19.019999999999996" as="geometry" />
        </mxCell>
        <mxCell id="step7" value="7. Apply missing/updated tags" style="text;html=1;strokeColor=none;fillColor=none;align=left;verticalAlign=top;whiteSpace=wrap;rounded=0;fontSize=11;fontColor=#333;" parent="HDXCXhQl1ltkm27_ZV5d-6" vertex="1">
          <mxGeometry x="10" y="164.83999999999995" width="220" height="19.019999999999996" as="geometry" />
        </mxCell>
        <mxCell id="step8" value="8. Generate detailed report" style="text;html=1;strokeColor=none;fillColor=none;align=left;verticalAlign=top;whiteSpace=wrap;rounded=0;fontSize=11;fontColor=#333;" parent="HDXCXhQl1ltkm27_ZV5d-6" vertex="1">
          <mxGeometry x="10" y="187.02999999999997" width="220" height="19.019999999999996" as="geometry" />
        </mxCell>
        <mxCell id="step9" value="9. Log to CloudWatch" style="text;html=1;strokeColor=none;fillColor=none;align=left;verticalAlign=top;whiteSpace=wrap;rounded=0;fontSize=11;fontColor=#333;" parent="HDXCXhQl1ltkm27_ZV5d-6" vertex="1">
          <mxGeometry x="10" y="209.21999999999997" width="220" height="19.019999999999996" as="geometry" />
        </mxCell>
        <mxCell id="step10" value="10. Admin views reports" style="text;html=1;strokeColor=none;fillColor=none;align=left;verticalAlign=top;whiteSpace=wrap;rounded=0;fontSize=11;fontColor=#333;" parent="HDXCXhQl1ltkm27_ZV5d-6" vertex="1">
          <mxGeometry x="10" y="231.40999999999994" width="220" height="19.019999999999996" as="geometry" />
        </mxCell>
        <mxCell id="HDXCXhQl1ltkm27_ZV5d-2" value="" style="group" parent="aws-cloud" vertex="1" connectable="0">
          <mxGeometry x="345" y="669" width="240" height="320" as="geometry" />
        </mxCell>
        <mxCell id="HDXCXhQl1ltkm27_ZV5d-3" value="" style="group" parent="HDXCXhQl1ltkm27_ZV5d-2" vertex="1" connectable="0">
          <mxGeometry width="240" height="320" as="geometry" />
        </mxCell>
        <mxCell id="legend-box" value="" style="rounded=1;whiteSpace=wrap;html=1;fillColor=#F0F8FF;strokeColor=#4682B4;strokeWidth=2;" parent="HDXCXhQl1ltkm27_ZV5d-3" vertex="1">
          <mxGeometry x="1" width="240" height="320" as="geometry" />
        </mxCell>
        <mxCell id="legend-title" value="Legend" style="text;html=1;strokeColor=none;fillColor=none;align=center;verticalAlign=middle;whiteSpace=wrap;rounded=0;fontSize=16;fontStyle=1;fontColor=#4682B4;" parent="HDXCXhQl1ltkm27_ZV5d-3" vertex="1">
          <mxGeometry y="10" width="240" height="30" as="geometry" />
        </mxCell>
        <mxCell id="legend1" value="Scheduled Trigger" style="text;html=1;strokeColor=none;fillColor=none;align=left;verticalAlign=middle;whiteSpace=wrap;rounded=0;fontSize=12;fontColor=#FF6B35;" parent="HDXCXhQl1ltkm27_ZV5d-3" vertex="1">
          <mxGeometry x="10" y="50" width="220" height="20" as="geometry" />
        </mxCell>
        <mxCell id="legend2" value="Resource Scanning" style="text;html=1;strokeColor=none;fillColor=none;align=left;verticalAlign=middle;whiteSpace=wrap;rounded=0;fontSize=12;fontColor=#7B68EE;" parent="HDXCXhQl1ltkm27_ZV5d-3" vertex="1">
          <mxGeometry x="10" y="75" width="220" height="20" as="geometry" />
        </mxCell>
        <mxCell id="legend3" value="Tag Operations" style="text;html=1;strokeColor=none;fillColor=none;align=left;verticalAlign=middle;whiteSpace=wrap;rounded=0;fontSize=12;fontColor=#32CD32;" parent="HDXCXhQl1ltkm27_ZV5d-3" vertex="1">
          <mxGeometry x="10" y="100" width="220" height="20" as="geometry" />
        </mxCell>
        <mxCell id="legend4" value="Logging and Reports" style="text;html=1;strokeColor=none;fillColor=none;align=left;verticalAlign=middle;whiteSpace=wrap;rounded=0;fontSize=12;fontColor=#FF69B4;" parent="HDXCXhQl1ltkm27_ZV5d-3" vertex="1">
          <mxGeometry x="10" y="125" width="220" height="20" as="geometry" />
        </mxCell>
        <mxCell id="legend5" value="IAM Permissions" style="text;html=1;strokeColor=none;fillColor=none;align=left;verticalAlign=middle;whiteSpace=wrap;rounded=0;fontSize=12;fontColor=#4A90E2;" parent="HDXCXhQl1ltkm27_ZV5d-3" vertex="1">
          <mxGeometry x="10" y="150" width="220" height="20" as="geometry" />
        </mxCell>
        <mxCell id="legend6" value="Storage Attachment" style="text;html=1;strokeColor=none;fillColor=none;align=left;verticalAlign=middle;whiteSpace=wrap;rounded=0;fontSize=12;fontColor=#B8860B;" parent="HDXCXhQl1ltkm27_ZV5d-3" vertex="1">
          <mxGeometry x="10" y="175" width="220" height="20" as="geometry" />
        </mxCell>
        <mxCell id="legend7" value="Human Interaction" style="text;html=1;strokeColor=none;fillColor=none;align=left;verticalAlign=middle;whiteSpace=wrap;rounded=0;fontSize=12;fontColor=#20B2AA;" parent="HDXCXhQl1ltkm27_ZV5d-3" vertex="1">
          <mxGeometry x="10" y="200" width="220" height="20" as="geometry" />
        </mxCell>
        <mxCell id="title" value="EBS Auto-Tagging Architecture" style="text;html=1;strokeColor=none;fillColor=none;align=center;verticalAlign=middle;whiteSpace=wrap;rounded=0;fontSize=24;fontStyle=1;fontColor=#232F3E;" parent="1" vertex="1">
          <mxGeometry x="680" y="20" width="400" height="40" as="geometry" />
        </mxCell>
      </root>
    </mxGraphModel>
  </diagram>
</mxfile>
